solid ascii
  facet normal 0.000000e+000 1.000000e+000 -0.000000e+000
    outer loop
      vertex   -8.519987e+001 6.050000e+001 -4.394713e+001
      vertex   -1.162000e+002 6.050000e+001 -4.394713e+001
      vertex   -8.519987e+001 6.050000e+001 -4.274689e+001
    endloop
  endfacet
  facet normal 0.000000e+000 1.000000e+000 0.000000e+000
    outer loop
      vertex   -8.519987e+001 6.050000e+001 -4.274689e+001
      vertex   -1.162000e+002 6.050000e+001 -4.394713e+001
      vertex   -1.162000e+002 6.050000e+001 -4.274689e+001
    endloop
  endfacet
  facet normal -1.000000e+000 0.000000e+000 0.000000e+000
    outer loop
      vertex   -8.519987e+001 9.850000e+001 -4.394713e+001
      vertex   -8.519987e+001 6.050000e+001 -4.394713e+001
      vertex   -8.519987e+001 9.850000e+001 -4.274689e+001
    endloop
  endfacet
  facet normal -1.000000e+000 -0.000000e+000 0.000000e+000
    outer loop
      vertex   -8.519987e+001 9.850000e+001 -4.274689e+001
      vertex   -8.519987e+001 6.050000e+001 -4.394713e+001
      vertex   -8.519987e+001 6.050000e+001 -4.274689e+001
    endloop
  endfacet
  facet normal 0.000000e+000 -1.000000e+000 0.000000e+000
    outer loop
      vertex   -1.162000e+002 9.850000e+001 -4.394713e+001
      vertex   -8.519987e+001 9.850000e+001 -4.394713e+001
      vertex   -1.162000e+002 9.850000e+001 -4.274689e+001
    endloop
  endfacet
  facet normal 0.000000e+000 -1.000000e+000 0.000000e+000
    outer loop
      vertex   -1.162000e+002 9.850000e+001 -4.274689e+001
      vertex   -8.519987e+001 9.850000e+001 -4.394713e+001
      vertex   -8.519987e+001 9.850000e+001 -4.274689e+001
    endloop
  endfacet
  facet normal 1.000000e+000 0.000000e+000 0.000000e+000
    outer loop
      vertex   -1.162000e+002 6.050000e+001 -4.394713e+001
      vertex   -1.162000e+002 9.850000e+001 -4.394713e+001
      vertex   -1.162000e+002 6.050000e+001 -4.274689e+001
    endloop
  endfacet
  facet normal 1.000000e+000 -0.000000e+000 0.000000e+000
    outer loop
      vertex   -1.162000e+002 6.050000e+001 -4.274689e+001
      vertex   -1.162000e+002 9.850000e+001 -4.394713e+001
      vertex   -1.162000e+002 9.850000e+001 -4.274689e+001
    endloop
  endfacet
  facet normal 0.000000e+000 0.000000e+000 -1.000000e+000
    outer loop
      vertex   -1.162000e+002 9.850000e+001 -4.394713e+001
      vertex   -1.200000e+002 1.015000e+002 -4.394713e+001
      vertex   -8.519987e+001 9.850000e+001 -4.394713e+001
    endloop
  endfacet
  facet normal 0.000000e+000 0.000000e+000 -1.000000e+000
    outer loop
      vertex   -8.519987e+001 9.850000e+001 -4.394713e+001
      vertex   -1.200000e+002 1.015000e+002 -4.394713e+001
      vertex   -8.000000e+001 1.015000e+002 -4.394713e+001
    endloop
  endfacet
  facet normal 0.000000e+000 0.000000e+000 -1.000000e+000
    outer loop
      vertex   -8.519987e+001 9.850000e+001 -4.394713e+001
      vertex   -8.000000e+001 1.015000e+002 -4.394713e+001
      vertex   -8.519987e+001 6.050000e+001 -4.394713e+001
    endloop
  endfacet
  facet normal 0.000000e+000 0.000000e+000 -1.000000e+000
    outer loop
      vertex   -8.519987e+001 6.050000e+001 -4.394713e+001
      vertex   -8.000000e+001 1.015000e+002 -4.394713e+001
      vertex   -8.000000e+001 5.050000e+001 -4.394713e+001
    endloop
  endfacet
  facet normal 0.000000e+000 -0.000000e+000 -1.000000e+000
    outer loop
      vertex   -8.519987e+001 6.050000e+001 -4.394713e+001
      vertex   -8.000000e+001 5.050000e+001 -4.394713e+001
      vertex   -1.200000e+002 5.050000e+001 -4.394713e+001
    endloop
  endfacet
  facet normal -0.000000e+000 -0.000000e+000 -1.000000e+000
    outer loop
      vertex   -1.162000e+002 9.850000e+001 -4.394713e+001
      vertex   -1.162000e+002 6.050000e+001 -4.394713e+001
      vertex   -1.200000e+002 1.015000e+002 -4.394713e+001
    endloop
  endfacet
  facet normal 0.000000e+000 0.000000e+000 -1.000000e+000
    outer loop
      vertex   -1.200000e+002 1.015000e+002 -4.394713e+001
      vertex   -1.162000e+002 6.050000e+001 -4.394713e+001
      vertex   -1.200000e+002 5.050000e+001 -4.394713e+001
    endloop
  endfacet
  facet normal 0.000000e+000 0.000000e+000 -1.000000e+000
    outer loop
      vertex   -1.200000e+002 5.050000e+001 -4.394713e+001
      vertex   -1.162000e+002 6.050000e+001 -4.394713e+001
      vertex   -8.519987e+001 6.050000e+001 -4.394713e+001
    endloop
  endfacet
  facet normal 0.000000e+000 -0.000000e+000 1.000000e+000
    outer loop
      vertex   -1.162000e+002 6.050000e+001 -4.274689e+001
      vertex   -1.162000e+002 9.850000e+001 -4.274689e+001
      vertex   -1.192000e+002 1.007000e+002 -4.274689e+001
    endloop
  endfacet
  facet normal 0.000000e+000 0.000000e+000 1.000000e+000
    outer loop
      vertex   -1.192000e+002 1.007000e+002 -4.274689e+001
      vertex   -1.162000e+002 9.850000e+001 -4.274689e+001
      vertex   -8.519987e+001 9.850000e+001 -4.274689e+001
    endloop
  endfacet
  facet normal -0.000000e+000 0.000000e+000 1.000000e+000
    outer loop
      vertex   -1.192000e+002 1.007000e+002 -4.274689e+001
      vertex   -8.519987e+001 9.850000e+001 -4.274689e+001
      vertex   -8.080000e+001 1.007000e+002 -4.274689e+001
    endloop
  endfacet
  facet normal 0.000000e+000 0.000000e+000 1.000000e+000
    outer loop
      vertex   -8.080000e+001 1.007000e+002 -4.274689e+001
      vertex   -8.519987e+001 9.850000e+001 -4.274689e+001
      vertex   -8.519987e+001 6.050000e+001 -4.274689e+001
    endloop
  endfacet
  facet normal 0.000000e+000 0.000000e+000 1.000000e+000
    outer loop
      vertex   -8.080000e+001 1.007000e+002 -4.274689e+001
      vertex   -8.519987e+001 6.050000e+001 -4.274689e+001
      vertex   -8.080000e+001 5.130000e+001 -4.274689e+001
    endloop
  endfacet
  facet normal 0.000000e+000 0.000000e+000 1.000000e+000
    outer loop
      vertex   -8.080000e+001 5.130000e+001 -4.274689e+001
      vertex   -8.519987e+001 6.050000e+001 -4.274689e+001
      vertex   -1.192000e+002 5.130000e+001 -4.274689e+001
    endloop
  endfacet
  facet normal 0.000000e+000 0.000000e+000 1.000000e+000
    outer loop
      vertex   -1.192000e+002 5.130000e+001 -4.274689e+001
      vertex   -8.519987e+001 6.050000e+001 -4.274689e+001
      vertex   -1.162000e+002 6.050000e+001 -4.274689e+001
    endloop
  endfacet
  facet normal 0.000000e+000 0.000000e+000 1.000000e+000
    outer loop
      vertex   -1.192000e+002 5.130000e+001 -4.274689e+001
      vertex   -1.162000e+002 6.050000e+001 -4.274689e+001
      vertex   -1.192000e+002 1.007000e+002 -4.274689e+001
    endloop
  endfacet
  facet normal 0.000000e+000 -1.000000e+000 0.000000e+000
    outer loop
      vertex   -8.000000e+001 5.050000e+001 -4.394713e+001
      vertex   -8.000000e+001 5.050000e+001 -2.844689e+001
      vertex   -1.200000e+002 5.050000e+001 -4.394713e+001
    endloop
  endfacet
  facet normal 0.000000e+000 -1.000000e+000 0.000000e+000
    outer loop
      vertex   -1.200000e+002 5.050000e+001 -4.394713e+001
      vertex   -8.000000e+001 5.050000e+001 -2.844689e+001
      vertex   -1.200000e+002 5.050000e+001 -2.844689e+001
    endloop
  endfacet
  facet normal -1.000000e+000 0.000000e+000 0.000000e+000
    outer loop
      vertex   -1.200000e+002 5.050000e+001 -4.394713e+001
      vertex   -1.200000e+002 5.050000e+001 -2.844689e+001
      vertex   -1.200000e+002 1.015000e+002 -4.394713e+001
    endloop
  endfacet
  facet normal -1.000000e+000 0.000000e+000 0.000000e+000
    outer loop
      vertex   -1.200000e+002 1.015000e+002 -4.394713e+001
      vertex   -1.200000e+002 5.050000e+001 -2.844689e+001
      vertex   -1.200000e+002 1.015000e+002 -2.844689e+001
    endloop
  endfacet
  facet normal 1.000000e+000 0.000000e+000 -0.000000e+000
    outer loop
      vertex   -8.000000e+001 1.015000e+002 -4.394713e+001
      vertex   -8.000000e+001 1.015000e+002 -2.844689e+001
      vertex   -8.000000e+001 5.050000e+001 -4.394713e+001
    endloop
  endfacet
  facet normal 1.000000e+000 0.000000e+000 0.000000e+000
    outer loop
      vertex   -8.000000e+001 5.050000e+001 -4.394713e+001
      vertex   -8.000000e+001 1.015000e+002 -2.844689e+001
      vertex   -8.000000e+001 5.050000e+001 -2.844689e+001
    endloop
  endfacet
  facet normal 0.000000e+000 0.000000e+000 1.000000e+000
    outer loop
      vertex   -8.080000e+001 1.007000e+002 -2.844689e+001
      vertex   -1.200000e+002 1.015000e+002 -2.844689e+001
      vertex   -1.192000e+002 1.007000e+002 -2.844689e+001
    endloop
  endfacet
  facet normal 0.000000e+000 0.000000e+000 1.000000e+000
    outer loop
      vertex   -1.192000e+002 1.007000e+002 -2.844689e+001
      vertex   -1.200000e+002 1.015000e+002 -2.844689e+001
      vertex   -1.200000e+002 5.050000e+001 -2.844689e+001
    endloop
  endfacet
  facet normal 0.000000e+000 0.000000e+000 1.000000e+000
    outer loop
      vertex   -1.192000e+002 1.007000e+002 -2.844689e+001
      vertex   -1.200000e+002 5.050000e+001 -2.844689e+001
      vertex   -1.192000e+002 5.130000e+001 -2.844689e+001
    endloop
  endfacet
  facet normal 0.000000e+000 0.000000e+000 1.000000e+000
    outer loop
      vertex   -1.192000e+002 5.130000e+001 -2.844689e+001
      vertex   -1.200000e+002 5.050000e+001 -2.844689e+001
      vertex   -8.000000e+001 5.050000e+001 -2.844689e+001
    endloop
  endfacet
  facet normal -0.000000e+000 0.000000e+000 1.000000e+000
    outer loop
      vertex   -1.192000e+002 5.130000e+001 -2.844689e+001
      vertex   -8.000000e+001 5.050000e+001 -2.844689e+001
      vertex   -8.080000e+001 5.130000e+001 -2.844689e+001
    endloop
  endfacet
  facet normal -0.000000e+000 0.000000e+000 1.000000e+000
    outer loop
      vertex   -8.080000e+001 5.130000e+001 -2.844689e+001
      vertex   -8.000000e+001 5.050000e+001 -2.844689e+001
      vertex   -8.080000e+001 1.007000e+002 -2.844689e+001
    endloop
  endfacet
  facet normal -0.000000e+000 0.000000e+000 1.000000e+000
    outer loop
      vertex   -8.080000e+001 1.007000e+002 -2.844689e+001
      vertex   -8.000000e+001 5.050000e+001 -2.844689e+001
      vertex   -8.000000e+001 1.015000e+002 -2.844689e+001
    endloop
  endfacet
  facet normal 0.000000e+000 -0.000000e+000 1.000000e+000
    outer loop
      vertex   -8.080000e+001 1.007000e+002 -2.844689e+001
      vertex   -8.000000e+001 1.015000e+002 -2.844689e+001
      vertex   -1.200000e+002 1.015000e+002 -2.844689e+001
    endloop
  endfacet
  facet normal 0.000000e+000 1.000000e+000 0.000000e+000
    outer loop
      vertex   -8.000000e+001 1.015000e+002 -2.844689e+001
      vertex   -8.000000e+001 1.015000e+002 -4.394713e+001
      vertex   -1.200000e+002 1.015000e+002 -2.844689e+001
    endloop
  endfacet
  facet normal 0.000000e+000 1.000000e+000 0.000000e+000
    outer loop
      vertex   -1.200000e+002 1.015000e+002 -2.844689e+001
      vertex   -8.000000e+001 1.015000e+002 -4.394713e+001
      vertex   -1.200000e+002 1.015000e+002 -4.394713e+001
    endloop
  endfacet
  facet normal 0.000000e+000 -1.000000e+000 0.000000e+000
    outer loop
      vertex   -1.192000e+002 1.007000e+002 -4.274689e+001
      vertex   -8.080000e+001 1.007000e+002 -4.274689e+001
      vertex   -1.192000e+002 1.007000e+002 -2.844689e+001
    endloop
  endfacet
  facet normal 0.000000e+000 -1.000000e+000 0.000000e+000
    outer loop
      vertex   -1.192000e+002 1.007000e+002 -2.844689e+001
      vertex   -8.080000e+001 1.007000e+002 -4.274689e+001
      vertex   -8.080000e+001 1.007000e+002 -2.844689e+001
    endloop
  endfacet
  facet normal -1.000000e+000 0.000000e+000 0.000000e+000
    outer loop
      vertex   -8.080000e+001 5.130000e+001 -2.844689e+001
      vertex   -8.080000e+001 1.007000e+002 -2.844689e+001
      vertex   -8.080000e+001 5.130000e+001 -4.274689e+001
    endloop
  endfacet
  facet normal -1.000000e+000 0.000000e+000 0.000000e+000
    outer loop
      vertex   -8.080000e+001 5.130000e+001 -4.274689e+001
      vertex   -8.080000e+001 1.007000e+002 -2.844689e+001
      vertex   -8.080000e+001 1.007000e+002 -4.274689e+001
    endloop
  endfacet
  facet normal -0.000000e+000 1.000000e+000 0.000000e+000
    outer loop
      vertex   -1.192000e+002 5.130000e+001 -2.844689e+001
      vertex   -8.080000e+001 5.130000e+001 -2.844689e+001
      vertex   -1.192000e+002 5.130000e+001 -4.274689e+001
    endloop
  endfacet
  facet normal 0.000000e+000 1.000000e+000 0.000000e+000
    outer loop
      vertex   -1.192000e+002 5.130000e+001 -4.274689e+001
      vertex   -8.080000e+001 5.130000e+001 -2.844689e+001
      vertex   -8.080000e+001 5.130000e+001 -4.274689e+001
    endloop
  endfacet
  facet normal 1.000000e+000 0.000000e+000 0.000000e+000
    outer loop
      vertex   -1.192000e+002 1.007000e+002 -2.844689e+001
      vertex   -1.192000e+002 5.130000e+001 -2.844689e+001
      vertex   -1.192000e+002 1.007000e+002 -4.274689e+001
    endloop
  endfacet
  facet normal 1.000000e+000 0.000000e+000 0.000000e+000
    outer loop
      vertex   -1.192000e+002 1.007000e+002 -4.274689e+001
      vertex   -1.192000e+002 5.130000e+001 -2.844689e+001
      vertex   -1.192000e+002 5.130000e+001 -4.274689e+001
    endloop
  endfacet
endsolid
solid ascii
  facet normal 0.000000e+000 -7.071064e-001 -7.071072e-001
    outer loop
      vertex   -1.200000e+002 1.010000e+002 -2.994689e+001
      vertex   -8.000000e+001 1.010000e+002 -2.994689e+001
      vertex   -1.200000e+002 9.950000e+001 -2.844689e+001
    endloop
  endfacet
  facet normal 0.000000e+000 -7.071064e-001 -7.071072e-001
    outer loop
      vertex   -1.200000e+002 9.950000e+001 -2.844689e+001
      vertex   -8.000000e+001 1.010000e+002 -2.994689e+001
      vertex   -8.000000e+001 9.950000e+001 -2.844689e+001
    endloop
  endfacet
  facet normal 0.000000e+000 -1.000000e+000 0.000000e+000
    outer loop
      vertex   -8.000000e+001 9.950000e+001 -2.844689e+001
      vertex   -8.000000e+001 9.950000e+001 -2.644689e+001
      vertex   -1.200000e+002 9.950000e+001 -2.844689e+001
    endloop
  endfacet
  facet normal 0.000000e+000 -1.000000e+000 0.000000e+000
    outer loop
      vertex   -1.200000e+002 9.950000e+001 -2.844689e+001
      vertex   -8.000000e+001 9.950000e+001 -2.644689e+001
      vertex   -1.200000e+002 9.950000e+001 -2.644689e+001
    endloop
  endfacet
  facet normal 1.000000e+000 0.000000e+000 -0.000000e+000
    outer loop
      vertex   -8.000000e+001 1.010000e+002 -2.994689e+001
      vertex   -8.000000e+001 1.015000e+002 -2.794689e+001
      vertex   -8.000000e+001 9.950000e+001 -2.844689e+001
    endloop
  endfacet
  facet normal 1.000000e+000 0.000000e+000 0.000000e+000
    outer loop
      vertex   -8.000000e+001 9.950000e+001 -2.844689e+001
      vertex   -8.000000e+001 1.015000e+002 -2.794689e+001
      vertex   -8.000000e+001 1.000000e+002 -2.644689e+001
    endloop
  endfacet
  facet normal 1.000000e+000 0.000000e+000 0.000000e+000
    outer loop
      vertex   -8.000000e+001 9.950000e+001 -2.844689e+001
      vertex   -8.000000e+001 1.000000e+002 -2.644689e+001
      vertex   -8.000000e+001 9.950000e+001 -2.644689e+001
    endloop
  endfacet
  facet normal 1.000000e+000 0.000000e+000 0.000000e+000
    outer loop
      vertex   -8.000000e+001 1.010000e+002 -2.994689e+001
      vertex   -8.000000e+001 1.015000e+002 -2.994689e+001
      vertex   -8.000000e+001 1.015000e+002 -2.794689e+001
    endloop
  endfacet
  facet normal -0.000000e+000 7.071068e-001 7.071068e-001
    outer loop
      vertex   -1.200000e+002 1.000000e+002 -2.644689e+001
      vertex   -8.000000e+001 1.000000e+002 -2.644689e+001
      vertex   -1.200000e+002 1.015000e+002 -2.794689e+001
    endloop
  endfacet
  facet normal -0.000000e+000 7.071068e-001 7.071068e-001
    outer loop
      vertex   -1.200000e+002 1.015000e+002 -2.794689e+001
      vertex   -8.000000e+001 1.000000e+002 -2.644689e+001
      vertex   -8.000000e+001 1.015000e+002 -2.794689e+001
    endloop
  endfacet
  facet normal 0.000000e+000 0.000000e+000 1.000000e+000
    outer loop
      vertex   -8.000000e+001 1.000000e+002 -2.644689e+001
      vertex   -1.200000e+002 1.000000e+002 -2.644689e+001
      vertex   -8.000000e+001 9.950000e+001 -2.644689e+001
    endloop
  endfacet
  facet normal 0.000000e+000 0.000000e+000 1.000000e+000
    outer loop
      vertex   -8.000000e+001 9.950000e+001 -2.644689e+001
      vertex   -1.200000e+002 1.000000e+002 -2.644689e+001
      vertex   -1.200000e+002 9.950000e+001 -2.644689e+001
    endloop
  endfacet
  facet normal 0.000000e+000 0.000000e+000 -1.000000e+000
    outer loop
      vertex   -8.000000e+001 1.010000e+002 -2.994689e+001
      vertex   -1.200000e+002 1.010000e+002 -2.994689e+001
      vertex   -8.000000e+001 1.015000e+002 -2.994689e+001
    endloop
  endfacet
  facet normal -0.000000e+000 0.000000e+000 -1.000000e+000
    outer loop
      vertex   -8.000000e+001 1.015000e+002 -2.994689e+001
      vertex   -1.200000e+002 1.010000e+002 -2.994689e+001
      vertex   -1.200000e+002 1.015000e+002 -2.994689e+001
    endloop
  endfacet
  facet normal -1.000000e+000 0.000000e+000 0.000000e+000
    outer loop
      vertex   -1.200000e+002 1.015000e+002 -2.994689e+001
      vertex   -1.200000e+002 1.010000e+002 -2.994689e+001
      vertex   -1.200000e+002 1.015000e+002 -2.794689e+001
    endloop
  endfacet
  facet normal -1.000000e+000 0.000000e+000 0.000000e+000
    outer loop
      vertex   -1.200000e+002 1.015000e+002 -2.794689e+001
      vertex   -1.200000e+002 1.010000e+002 -2.994689e+001
      vertex   -1.200000e+002 9.950000e+001 -2.844689e+001
    endloop
  endfacet
  facet normal -1.000000e+000 -0.000000e+000 0.000000e+000
    outer loop
      vertex   -1.200000e+002 1.015000e+002 -2.794689e+001
      vertex   -1.200000e+002 9.950000e+001 -2.844689e+001
      vertex   -1.200000e+002 1.000000e+002 -2.644689e+001
    endloop
  endfacet
  facet normal -1.000000e+000 -0.000000e+000 0.000000e+000
    outer loop
      vertex   -1.200000e+002 1.000000e+002 -2.644689e+001
      vertex   -1.200000e+002 9.950000e+001 -2.844689e+001
      vertex   -1.200000e+002 9.950000e+001 -2.644689e+001
    endloop
  endfacet
  facet normal 0.000000e+000 1.000000e+000 0.000000e+000
    outer loop
      vertex   -8.000000e+001 1.015000e+002 -2.794689e+001
      vertex   -8.000000e+001 1.015000e+002 -2.994689e+001
      vertex   -1.200000e+002 1.015000e+002 -2.794689e+001
    endloop
  endfacet
  facet normal 0.000000e+000 1.000000e+000 0.000000e+000
    outer loop
      vertex   -1.200000e+002 1.015000e+002 -2.794689e+001
      vertex   -8.000000e+001 1.015000e+002 -2.994689e+001
      vertex   -1.200000e+002 1.015000e+002 -2.994689e+001
    endloop
  endfacet
endsolid
solid ascii
  facet normal 0.000000e+000 0.000000e+000 1.000000e+000
    outer loop
      vertex   -8.712627e+001 5.130000e+001 -2.744689e+001
      vertex   -9.511222e+001 5.130000e+001 -2.744689e+001
      vertex   -8.712627e+001 5.047730e+001 -2.744689e+001
    endloop
  endfacet
  facet normal 0.000000e+000 0.000000e+000 1.000000e+000
    outer loop
      vertex   -8.712627e+001 5.047730e+001 -2.744689e+001
      vertex   -9.511222e+001 5.130000e+001 -2.744689e+001
      vertex   -9.511222e+001 5.047730e+001 -2.744689e+001
    endloop
  endfacet
  facet normal 0.000000e+000 0.000000e+000 -1.000000e+000
    outer loop
      vertex   -8.712627e+001 5.047730e+001 -2.844689e+001
      vertex   -9.511222e+001 5.047730e+001 -2.844689e+001
      vertex   -8.712627e+001 5.130000e+001 -2.844689e+001
    endloop
  endfacet
  facet normal -0.000000e+000 0.000000e+000 -1.000000e+000
    outer loop
      vertex   -8.712627e+001 5.130000e+001 -2.844689e+001
      vertex   -9.511222e+001 5.047730e+001 -2.844689e+001
      vertex   -9.511222e+001 5.130000e+001 -2.844689e+001
    endloop
  endfacet
  facet normal 0.000000e+000 -1.000000e+000 0.000000e+000
    outer loop
      vertex   -9.511222e+001 5.047730e+001 -2.744689e+001
      vertex   -9.511222e+001 5.047730e+001 -2.844689e+001
      vertex   -8.712627e+001 5.047730e+001 -2.744689e+001
    endloop
  endfacet
  facet normal 0.000000e+000 -1.000000e+000 -0.000000e+000
    outer loop
      vertex   -8.712627e+001 5.047730e+001 -2.744689e+001
      vertex   -9.511222e+001 5.047730e+001 -2.844689e+001
      vertex   -8.712627e+001 5.047730e+001 -2.844689e+001
    endloop
  endfacet
  facet normal -1.000000e+000 -0.000000e+000 -0.000000e+000
    outer loop
      vertex   -9.511222e+001 5.130000e+001 -2.744689e+001
      vertex   -9.511222e+001 5.130000e+001 -2.844689e+001
      vertex   -9.511222e+001 5.047730e+001 -2.744689e+001
    endloop
  endfacet
  facet normal -1.000000e+000 0.000000e+000 0.000000e+000
    outer loop
      vertex   -9.511222e+001 5.047730e+001 -2.744689e+001
      vertex   -9.511222e+001 5.130000e+001 -2.844689e+001
      vertex   -9.511222e+001 5.047730e+001 -2.844689e+001
    endloop
  endfacet
  facet normal 0.000000e+000 1.000000e+000 0.000000e+000
    outer loop
      vertex   -8.712627e+001 5.130000e+001 -2.744689e+001
      vertex   -8.712627e+001 5.130000e+001 -2.844689e+001
      vertex   -9.511222e+001 5.130000e+001 -2.744689e+001
    endloop
  endfacet
  facet normal 0.000000e+000 1.000000e+000 0.000000e+000
    outer loop
      vertex   -9.511222e+001 5.130000e+001 -2.744689e+001
      vertex   -8.712627e+001 5.130000e+001 -2.844689e+001
      vertex   -9.511222e+001 5.130000e+001 -2.844689e+001
    endloop
  endfacet
  facet normal 1.000000e+000 -0.000000e+000 0.000000e+000
    outer loop
      vertex   -8.712627e+001 5.047730e+001 -2.744689e+001
      vertex   -8.712627e+001 5.047730e+001 -2.844689e+001
      vertex   -8.712627e+001 5.130000e+001 -2.744689e+001
    endloop
  endfacet
  facet normal 1.000000e+000 0.000000e+000 0.000000e+000
    outer loop
      vertex   -8.712627e+001 5.130000e+001 -2.744689e+001
      vertex   -8.712627e+001 5.047730e+001 -2.844689e+001
      vertex   -8.712627e+001 5.130000e+001 -2.844689e+001
    endloop
  endfacet
endsolid
